 
http://desibbrg.org/images/66952052392581364616.gif
 
http://desibbrg.org/images/85096999024276209678.jpg
 
http://desibbrg.org/images/14617451211000576321.jpg
 
http://desibbrg.org/images/45070927797467723514.jpg
 
http://desibbrg.org/images/79344579758960915334.jpg


Media Info -
General
Complete name                  : 3 Bachelors 2012 DVDRip x264 5.1.avi
Format                         : AVI
Format/Info                    : Audio Video Interleave
File size                      : 667 MiB
Duration                       : 1h 49mn
Overall bit rate               : 849 Kbps
Movie name                     : 3 Bachelors 2012 DVDRip x264 5.1
Writing application            : Lavf52.94.0

Video
ID                             : 0
Format                         : AVC
Format/Info                    : Advanced Video Codec
Format profile                 : Main@L3.0
Format settings, CABAC         : Yes
Format settings, ReFrames      : 2 frames
Codec ID                       : H264
Duration                       : 1h 49mn
Bit rate                       : 578 Kbps
Width                          : 720 pixels
Height                         : 304 pixels
Display aspect ratio           : 2.35:1
Frame rate mode                : Variable
Frame rate                     : 29.970 fps
Color space                    : YUV
Chroma subsampling             : 4:2:0
Bit depth                      : 8 bits
Scan type                      : Progressive
Bits/(Pixel*Frame)             : 0.088
Stream size                    : 455 MiB (68%)
Writing library                : x264 core 112 r1834 a51816a
Encoding settings              : cabac=1 / ref=1 / deblock=1:0:0 / analyse=0x1:0 / me=dia / subme=2 / psy=1 / psy_rd=0.00:0.00 / mixed_ref=0 / me_range=16 / chroma_me=1 / trellis=0 / 8x8dct=0 / cqm=0 / deadzone=21,11 / fast_pskip=1 / chroma_qp_offset=0 / threads=4 / sliced_threads=0 / nr=0 / decimate=1 / interlaced=0 / constrained_intra=0 / bframes=3 / b_pyramid=0 / b_adapt=1 / b_bias=0 / direct=3 / weightb=0 / open_gop=0 / weightp=2 / keyint=250 / keyint_min=25 / scenecut=40 / intra_refresh=0 / rc_lookahead=40 / rc=abr / mbtree=1 / bitrate=578 / ratetol=1.0 / qcomp=0.60 / qpmin=10 / qpmax=51 / qpstep=4 / ip_ratio=1.41 / aq=1:1.00

Audio
ID                             : 1
Format                         : MPEG Audio
Format version                 : Version 1
Format profile                 : Layer 3
Mode                           : Joint stereo
Mode extension                 : MS Stereo
Codec ID                       : 55
Codec ID/Hint                  : MP3
Duration                       : 1h 49mn
Bit rate mode                  : Constant
Bit rate                       : 256 Kbps
Channel(s)                     : 2 channels
Sampling rate                  : 48.0 KHz
Compression mode               : Lossy
Stream size                    : 201 MiB (30%)
Alignment                      : Aligned on interleaves
Interleave, duration           : 24 ms (0.72 video frame)

Ripper : Saket

Source : K@rtik's DVDRip @ ExD

Seeding 24x7... Extreme Seeding...


Enjoy!
